<svg xmlns="http://www.w3.org/2000/svg" aria-hidden="true" style="position:absolute;width:0;height:0;overflow:hidden">
  <defs>
    <symbol id="icon-Map" viewBox="0 0 32 32">
<path d="M31.632 0.224c0.112 0.080 0.208 0.208 0.256 0.336 0.064 0.144 0.112 0.288 0.112 0.432v28c0 0.224-0.096 0.448-0.24 0.64-0.144 0.176-0.352 0.288-0.576 0.336l-10 2c-0.128 0.032-0.256 0.032-0.384 0l-9.808-1.952-9.808 1.952c-0.144 0.032-0.288 0.032-0.432 0-0.144-0.048-0.272-0.112-0.4-0.208-0.112-0.096-0.208-0.208-0.256-0.336-0.064-0.144-0.096-0.288-0.096-0.432v-28c0-0.224 0.080-0.448 0.224-0.64 0.144-0.176 0.352-0.288 0.576-0.336l10-2c0.128-0.032 0.256-0.032 0.384 0l9.808 1.952 9.808-1.952c0.144-0.032 0.288-0.032 0.432 0 0.144 0.048 0.272 0.112 0.4 0.208zM20 3.808l-8-1.6v25.968l8 1.6v-25.968zM22 29.776l8-1.6v-25.968l-8 1.6v25.968zM10 28.176v-25.968l-8 1.6v25.968l8-1.6z"></path>
</symbol>
<symbol id="icon-bi_droplet" viewBox="0 0 32 32">
<path d="M14.42 1.59c0.96-1 1.58-1.59 1.58-1.59 0.21 0.72 0.46 1.41 0.74 2.070 1.62 3.89 4.14 6.7 6.39 9.2 2.62 2.92 4.87 5.42 4.87 8.73 0 3.18-1.27 6.23-3.52 8.48s-5.3 3.52-8.48 3.52c-3.19 0-6.24-1.27-8.49-3.52s-3.51-5.3-3.51-8.48c0-6.67 7.16-14.97 10.42-18.41zM15.24 3.64c-1.28 1.39-2.5 2.83-3.66 4.33-1.45 1.91-2.87 4.020-3.92 6.15-1.060 2.14-1.66 4.15-1.66 5.88 0 2.65 1.050 5.19 2.92 7.070 1.88 1.87 4.42 2.93 7.080 2.93 2.65 0 5.19-1.060 7.070-2.93 1.87-1.88 2.93-4.42 2.93-7.070 0-2.41-1.6-4.32-4.37-7.4l-0.060-0.070c-2.070-2.31-4.57-5.090-6.33-8.89z"></path>
<path d="M9.1 15.55c1.64-3.28 3.44-5.51 4.19-6.26l1.41 1.41c-0.58 0.58-2.25 2.63-3.81 5.74l-1.79-0.89z"></path>
</symbol>
<symbol id="icon-cup-hot" viewBox="0 0 32 32">
<path d="M0.99 12c-0.14 0-0.29 0.030-0.43 0.090-0.13 0.070-0.25 0.16-0.34 0.28-0.1 0.12-0.16 0.25-0.2 0.4-0.030 0.14-0.030 0.29 0 0.44l3.3 14.87c0.25 1.11 0.87 2.1 1.75 2.81 0.89 0.72 2 1.1 3.13 1.11h11.59c1.13-0.010 2.24-0.39 3.13-1.11 0.88-0.71 1.5-1.7 1.75-2.81l0.26-1.18c1.53 0.29 3.11-0.030 4.41-0.89s2.21-2.19 2.55-3.71c0.34-1.52 0.070-3.11-0.74-4.44-0.82-1.32-2.11-2.28-3.62-2.67l0.44-1.98c0.030-0.15 0.030-0.3 0-0.44-0.040-0.15-0.1-0.28-0.2-0.4-0.090-0.12-0.21-0.21-0.34-0.28-0.14-0.060-0.29-0.090-0.43-0.090h-26.010zM26 25c-0.22 0-0.43-0.020-0.64-0.050l1.74-7.8c0.92 0.27 1.72 0.86 2.24 1.67 0.53 0.81 0.74 1.78 0.61 2.73-0.14 0.95-0.61 1.83-1.34 2.46-0.72 0.63-1.65 0.98-2.61 0.99zM5.27 27.65l-3.030-13.65h23.51l-3.030 13.65c-0.15 0.66-0.52 1.26-1.060 1.68-0.53 0.43-1.19 0.66-1.87 0.67h-11.59c-0.68-0.010-1.34-0.24-1.87-0.67-0.54-0.42-0.91-1.020-1.060-1.68z"></path>
<path d="M8.8 1.6h-0.010l-0.030 0.040c-0.14 0.2-0.28 0.41-0.41 0.62-0.1 0.17-0.2 0.35-0.28 0.54-0.050 0.12-0.070 0.18-0.070 0.2v0.010c0.020 0.18 0.080 0.35 0.18 0.5 0.15 0.26 0.35 0.54 0.62 0.89l0.020 0.020c0.23 0.32 0.52 0.69 0.74 1.090s0.44 0.91 0.44 1.49c0 0.37-0.13 0.73-0.24 0.98-0.12 0.27-0.25 0.53-0.41 0.78-0.15 0.26-0.32 0.52-0.5 0.76l-0.040 0.050-0.010 0.020c-0.16 0.22-0.4 0.36-0.66 0.39-0.26 0.040-0.53-0.030-0.74-0.18-0.22-0.16-0.36-0.4-0.39-0.66-0.040-0.27 0.030-0.53 0.19-0.74v-0.010l0.030-0.040c0.14-0.2 0.28-0.41 0.41-0.62 0.1-0.17 0.2-0.35 0.28-0.53 0.050-0.12 0.070-0.19 0.070-0.21-0.020-0.18-0.080-0.35-0.18-0.5-0.18-0.32-0.39-0.61-0.61-0.89l-0.030-0.030c-0.27-0.34-0.51-0.71-0.73-1.080-0.28-0.46-0.43-0.97-0.44-1.49 0-0.38 0.13-0.74 0.23-0.99 0.12-0.28 0.27-0.55 0.41-0.78 0.16-0.26 0.32-0.51 0.5-0.76l0.050-0.070c0.16-0.22 0.4-0.36 0.66-0.39 0.26-0.040 0.53 0.030 0.74 0.19 0.22 0.15 0.36 0.39 0.39 0.65 0.040 0.27-0.030 0.53-0.18 0.75zM14.8 1.6h-0.010l-0.030 0.040c-0.14 0.2-0.28 0.41-0.41 0.62-0.1 0.17-0.2 0.35-0.28 0.54-0.050 0.12-0.070 0.18-0.070 0.2v0.010c0.020 0.18 0.080 0.35 0.18 0.5 0.15 0.26 0.36 0.54 0.62 0.89l0.020 0.020c0.23 0.32 0.52 0.69 0.74 1.090s0.44 0.91 0.44 1.49c0 0.37-0.13 0.73-0.24 0.98-0.12 0.27-0.25 0.53-0.41 0.78-0.15 0.26-0.32 0.52-0.5 0.76l-0.040 0.050-0.010 0.020c-0.16 0.22-0.4 0.36-0.66 0.39-0.26 0.040-0.53-0.030-0.74-0.18-0.22-0.16-0.36-0.4-0.39-0.66-0.040-0.27 0.030-0.53 0.19-0.74v-0.010l0.030-0.040c0.14-0.2 0.28-0.41 0.41-0.62 0.1-0.17 0.2-0.35 0.28-0.53 0.050-0.12 0.070-0.19 0.070-0.21-0.020-0.18-0.080-0.35-0.18-0.5-0.18-0.32-0.39-0.61-0.61-0.89l-0.020-0.030c-0.28-0.34-0.52-0.71-0.74-1.080-0.28-0.46-0.43-0.97-0.44-1.49 0-0.38 0.13-0.74 0.23-0.99 0.12-0.28 0.27-0.55 0.41-0.78 0.16-0.26 0.32-0.51 0.5-0.76l0.050-0.070c0.16-0.22 0.4-0.36 0.66-0.39 0.26-0.040 0.53 0.030 0.74 0.19 0.22 0.15 0.36 0.39 0.39 0.65 0.040 0.27-0.030 0.53-0.18 0.75zM20.8 1.6h-0.010l-0.030 0.040c-0.14 0.2-0.28 0.41-0.41 0.62-0.1 0.17-0.2 0.35-0.28 0.54-0.050 0.12-0.070 0.18-0.070 0.2v0.010c0.020 0.18 0.080 0.35 0.18 0.5 0.15 0.26 0.36 0.54 0.62 0.89l0.020 0.020c0.23 0.32 0.52 0.69 0.74 1.090s0.44 0.91 0.44 1.49c0 0.37-0.13 0.73-0.24 0.98-0.12 0.27-0.25 0.53-0.41 0.78-0.15 0.26-0.32 0.52-0.5 0.76l-0.040 0.050-0.010 0.020c-0.16 0.22-0.4 0.36-0.66 0.39-0.26 0.040-0.53-0.030-0.74-0.18-0.22-0.16-0.36-0.4-0.39-0.66-0.040-0.27 0.030-0.53 0.19-0.74v-0.010l0.030-0.040c0.14-0.2 0.28-0.41 0.41-0.62 0.1-0.17 0.2-0.35 0.28-0.53 0.050-0.12 0.070-0.19 0.070-0.21-0.020-0.18-0.080-0.35-0.18-0.5-0.18-0.32-0.39-0.61-0.61-0.89l-0.020-0.030c-0.28-0.34-0.52-0.71-0.74-1.080-0.28-0.46-0.43-0.97-0.44-1.49 0-0.38 0.12-0.74 0.23-0.99 0.12-0.28 0.27-0.55 0.41-0.78 0.16-0.26 0.32-0.51 0.5-0.76l0.050-0.070c0.16-0.22 0.4-0.36 0.66-0.39 0.26-0.040 0.53 0.030 0.74 0.19 0.22 0.15 0.36 0.39 0.39 0.65 0.040 0.27-0.030 0.53-0.18 0.75z"></path>
</symbol>
<symbol id="icon-diagram" viewBox="0 0 32 32">
<path d="M12 7c0-0.8 0.31-1.56 0.87-2.13 0.57-0.56 1.33-0.87 2.13-0.87h2c0.79 0 1.55 0.31 2.12 0.87 0.56 0.57 0.88 1.33 0.88 2.13v2c0 0.79-0.32 1.55-0.88 2.12-0.57 0.56-1.33 0.88-2.12 0.88v2h11c0.26 0 0.51 0.1 0.7 0.29s0.3 0.44 0.3 0.71v2c0 0.26-0.11 0.51-0.3 0.7s-0.44 0.3-0.7 0.3c-0.27 0-0.52-0.11-0.71-0.3s-0.29-0.44-0.29-0.7v-1h-10v1c0 0.26-0.11 0.51-0.3 0.7s-0.44 0.3-0.7 0.3c-0.27 0-0.52-0.11-0.71-0.3s-0.29-0.44-0.29-0.7v-1h-10v1c0 0.26-0.11 0.51-0.3 0.7s-0.44 0.3-0.7 0.3c-0.27 0-0.52-0.11-0.71-0.3s-0.29-0.44-0.29-0.7v-2c0-0.27 0.1-0.52 0.29-0.71s0.44-0.29 0.71-0.29h11v-2c-0.8 0-1.56-0.32-2.13-0.88-0.56-0.57-0.87-1.33-0.87-2.12v-2zM17 10c0.26 0 0.51-0.11 0.7-0.3s0.3-0.44 0.3-0.7v-2c0-0.27-0.11-0.52-0.3-0.71s-0.44-0.29-0.7-0.29h-2c-0.27 0-0.52 0.1-0.71 0.29s-0.29 0.44-0.29 0.71v2c0 0.26 0.1 0.51 0.29 0.7s0.44 0.3 0.71 0.3h2zM0 23c0-0.8 0.31-1.56 0.87-2.13 0.57-0.56 1.33-0.87 2.13-0.87h2c0.79 0 1.55 0.31 2.12 0.87 0.56 0.57 0.88 1.33 0.88 2.13v2c0 0.79-0.32 1.55-0.88 2.12-0.57 0.56-1.33 0.88-2.12 0.88h-2c-0.8 0-1.56-0.32-2.13-0.88-0.56-0.57-0.87-1.33-0.87-2.12v-2zM3 22c-0.27 0-0.52 0.1-0.71 0.29s-0.29 0.44-0.29 0.71v2c0 0.26 0.1 0.51 0.29 0.7s0.44 0.3 0.71 0.3h2c0.26 0 0.51-0.11 0.7-0.3s0.3-0.44 0.3-0.7v-2c0-0.27-0.11-0.52-0.3-0.71s-0.44-0.29-0.7-0.29h-2zM12 23c0-0.8 0.31-1.56 0.87-2.13 0.57-0.56 1.33-0.87 2.13-0.87h2c0.79 0 1.55 0.31 2.12 0.87 0.56 0.57 0.88 1.33 0.88 2.13v2c0 0.79-0.32 1.55-0.88 2.12-0.57 0.56-1.33 0.88-2.12 0.88h-2c-0.8 0-1.56-0.32-2.13-0.88-0.56-0.57-0.87-1.33-0.87-2.12v-2zM15 22c-0.27 0-0.52 0.1-0.71 0.29s-0.29 0.44-0.29 0.71v2c0 0.26 0.1 0.51 0.29 0.7s0.44 0.3 0.71 0.3h2c0.26 0 0.51-0.11 0.7-0.3s0.3-0.44 0.3-0.7v-2c0-0.27-0.11-0.52-0.3-0.71s-0.44-0.29-0.7-0.29h-2zM24 23c0-0.8 0.31-1.56 0.87-2.13 0.57-0.56 1.33-0.87 2.13-0.87h2c0.79 0 1.55 0.31 2.12 0.87 0.56 0.57 0.88 1.33 0.88 2.13v2c0 0.79-0.32 1.55-0.88 2.12-0.57 0.56-1.33 0.88-2.12 0.88h-2c-0.8 0-1.56-0.32-2.13-0.88-0.56-0.57-0.87-1.33-0.87-2.12v-2zM27 22c-0.27 0-0.52 0.1-0.71 0.29s-0.29 0.44-0.29 0.71v2c0 0.26 0.1 0.51 0.29 0.7s0.44 0.3 0.71 0.3h2c0.26 0 0.51-0.11 0.7-0.3s0.3-0.44 0.3-0.7v-2c0-0.27-0.11-0.52-0.3-0.71s-0.44-0.29-0.7-0.29h-2z"></path>
</symbol>
<symbol id="icon-tv" viewBox="0 0 32 32">
<path d="M0 8c0 0 0-4 4-4h24c0 0 4 0 4 4v12c0 0 0 4-4 4h-8c0 1.33 0.16 2.33 0.5 3h1.5c0.26 0 0.51 0.1 0.7 0.29s0.3 0.44 0.3 0.71c0 0.26-0.11 0.51-0.3 0.7s-0.44 0.3-0.7 0.3h-12c-0.27 0-0.52-0.11-0.71-0.3s-0.29-0.44-0.29-0.7c0-0.27 0.1-0.52 0.29-0.71s0.44-0.29 0.71-0.29h1.5c0.33-0.67 0.5-1.67 0.5-3h-8c0 0-4 0-4-4v-12zM2.79 6.28c-0.22 0.16-0.39 0.37-0.51 0.61-0.17 0.35-0.26 0.73-0.28 1.13v11.98c0 0.65 0.15 1 0.29 1.2 0.14 0.21 0.34 0.38 0.6 0.51 0.34 0.16 0.7 0.26 1.080 0.28l0.050 0.010h23.98c0.65 0 1-0.16 1.2-0.29 0.22-0.16 0.39-0.37 0.51-0.61 0.16-0.34 0.26-0.7 0.28-1.070l0.010-0.050v-11.98c0-0.66-0.16-1.010-0.29-1.21-0.16-0.22-0.37-0.39-0.61-0.51-0.35-0.17-0.73-0.26-1.12-0.28h-23.98c-0.65 0-1.010 0.15-1.21 0.28z"></path>
</symbol>
<symbol id="icon-wind" viewBox="0 0 32 32">
<path d="M25 4c-1.33 0-2.6 0.52-3.54 1.46s-1.46 2.21-1.46 3.54c0 0.26-0.11 0.51-0.3 0.7s-0.44 0.3-0.7 0.3c-0.27 0-0.52-0.11-0.71-0.3s-0.29-0.44-0.29-0.7c0-1.39 0.41-2.74 1.17-3.89 0.77-1.16 1.87-2.050 3.15-2.58s2.68-0.67 4.040-0.4c1.36 0.27 2.61 0.94 3.58 1.92 0.98 0.97 1.65 2.22 1.92 3.58s0.13 2.76-0.4 4.040c-0.53 1.28-1.42 2.38-2.58 3.15-1.15 0.76-2.5 1.18-3.88 1.18h-24c-0.27 0-0.52-0.11-0.71-0.3s-0.29-0.44-0.29-0.7c0-0.27 0.1-0.52 0.29-0.71s0.44-0.29 0.71-0.29h24c1.32 0 2.59-0.53 3.53-1.47s1.47-2.21 1.47-3.53c0-1.33-0.53-2.6-1.47-3.54s-2.21-1.46-3.53-1.46zM11 6c-0.54 0-1.040 0.21-1.42 0.58-0.37 0.38-0.58 0.88-0.58 1.42 0 0.26-0.11 0.51-0.3 0.7s-0.44 0.3-0.7 0.3c-0.27 0-0.52-0.11-0.71-0.3s-0.29-0.44-0.29-0.7c0-0.8 0.23-1.57 0.67-2.23s1.060-1.17 1.79-1.47c0.74-0.3 1.54-0.38 2.32-0.23 0.77 0.16 1.48 0.54 2.040 1.1s0.94 1.27 1.1 2.040c0.15 0.78 0.070 1.58-0.23 2.32-0.3 0.73-0.81 1.35-1.47 1.79s-1.43 0.68-2.22 0.68h-10c-0.27 0-0.52-0.11-0.71-0.3s-0.29-0.44-0.29-0.7c0-0.27 0.1-0.52 0.29-0.71s0.44-0.29 0.71-0.29h10c0.53 0 1.030-0.22 1.41-0.59 0.37-0.38 0.59-0.88 0.59-1.41 0-0.54-0.22-1.040-0.59-1.42-0.38-0.37-0.88-0.58-1.41-0.58zM0 19c0-0.27 0.1-0.52 0.29-0.71s0.44-0.29 0.71-0.29h20.080c1.19 0 2.35 0.35 3.33 1.010 0.99 0.66 1.76 1.59 2.21 2.69 0.46 1.1 0.58 2.3 0.34 3.47-0.23 1.16-0.8 2.23-1.64 3.070s-1.91 1.41-3.070 1.64c-1.16 0.23-2.37 0.11-3.47-0.34-1.090-0.46-2.030-1.22-2.69-2.21s-1.010-2.15-1.010-3.33c0-0.27 0.1-0.52 0.29-0.71s0.44-0.29 0.71-0.29c0.26 0 0.52 0.1 0.71 0.29 0.18 0.19 0.29 0.44 0.29 0.71 0 0.79 0.23 1.56 0.67 2.22s1.070 1.17 1.8 1.47c0.73 0.3 1.53 0.38 2.31 0.23 0.78-0.16 1.49-0.54 2.050-1.1s0.94-1.27 1.090-2.040c0.16-0.78 0.080-1.58-0.23-2.32-0.3-0.73-0.81-1.35-1.47-1.79s-1.43-0.67-2.22-0.67h-20.080c-0.27 0-0.52-0.11-0.71-0.3s-0.29-0.44-0.29-0.7z"></path>
</symbol>
  </defs>
</svg>